<svg xmlns="http://www.w3.org/2000/svg" viewBox="0 0 192 192"><path fill="none" stroke="#0d0d0d" stroke-linecap="round" stroke-miterlimit="10" stroke-width="8.18" d="M132 171.92v-43.77a12.32 12.32 0 0 0-12.47-12.09h-15.06A12.32 12.32 0 0 0 92 128.15v43.77"/><path fill="none" stroke="#0d0d0d" stroke-linecap="round" stroke-miterlimit="10" stroke-width="8" d="M112.78 144.43h5.91"/><path fill="none" stroke="#0d0d0d" stroke-miterlimit="10" stroke-width="8" d="M84.2 25S29.1 65.8 23.38 71.18c-8.87 8.35 1.34 20.92 12.07 20.92h121.64c10.74 0 19.68-13.32 12.08-20.92S108.35 25 108.35 25c-9.14-7.28-17.03-5.63-24.15 0z"/><path fill="none" stroke="#0d0d0d" stroke-miterlimit="10" stroke-width="8" d="M155.9 60.33V20.5h-19.71a12.94 12.94 0 0 0-12.9 12.89v2.66M35.73 91.92h120v64a16 16 0 0 1-16 16h-88a16 16 0 0 1-16-16v-64h0z"/></svg>